<svg width="22" height="22" viewBox="0 0 22 22" fill="none" xmlns="http://www.w3.org/2000/svg">
<path d="M9.99153 0.064455C8.16535 0.300783 6.48098 1.12578 5.17473 2.42344C3.85559 3.73828 3.03918 5.43125 2.81574 7.30469C2.69973 8.28867 2.75559 9.16524 3.00481 10.2051C3.73957 13.2473 6.13293 17.0285 9.76379 20.8828C10.7005 21.8754 10.838 22 11.0056 22C11.1689 22 11.4224 21.7637 12.4193 20.6895C16.4197 16.3754 18.7743 12.3707 19.1868 9.18242C19.5005 6.75469 18.6111 4.21524 16.8236 2.42344C15.5947 1.19453 14.0864 0.416799 12.3118 0.107424C11.7661 0.00859566 10.5759 -0.0128887 9.99153 0.064455ZM11.9251 4.58906C13.3216 4.97149 14.3056 5.96406 14.6794 7.37344C14.7954 7.81602 14.7911 8.71406 14.6665 9.17383C14.413 10.1063 13.8458 10.9055 13.081 11.3996C10.6318 12.9852 7.42199 11.3738 7.23293 8.46914C7.16418 7.40352 7.56379 6.36367 8.33723 5.58594C8.90442 5.02305 9.54895 4.6793 10.3353 4.52891C10.7392 4.45156 11.5298 4.48164 11.9251 4.58906Z" fill="#45B350"/>
</svg>
