<svg width="90" height="90" viewBox="0 0 90 90" fill="none" xmlns="http://www.w3.org/2000/svg">
<path fill-rule="evenodd" clip-rule="evenodd" d="M12.1875 65.625C12.1875 59.9297 16.8045 55.3125 22.5 55.3125C28.1954 55.3125 32.8125 59.9296 32.8125 65.625C32.8125 71.3204 28.1954 75.9375 22.5 75.9375C16.8045 75.9375 12.1875 71.3203 12.1875 65.625ZM22.5 60.9375C19.9112 60.9375 17.8125 63.0362 17.8125 65.625C17.8125 68.2138 19.9112 70.3125 22.5 70.3125C25.0888 70.3125 27.1875 68.2138 27.1875 65.625C27.1875 63.0362 25.0888 60.9375 22.5 60.9375Z" fill="#38A743"/>
<path fill-rule="evenodd" clip-rule="evenodd" d="M55.3125 65.625C55.3125 59.9296 59.9296 55.3125 65.625 55.3125C71.3204 55.3125 75.9375 59.9296 75.9375 65.625C75.9375 71.3204 71.3204 75.9375 65.625 75.9375C59.9296 75.9375 55.3125 71.3204 55.3125 65.625ZM65.625 60.9375C63.0362 60.9375 60.9375 63.0362 60.9375 65.625C60.9375 68.2138 63.0362 70.3125 65.625 70.3125C68.2138 70.3125 70.3125 68.2138 70.3125 65.625C70.3125 63.0362 68.2138 60.9375 65.625 60.9375Z" fill="#38A743"/>
<path fill-rule="evenodd" clip-rule="evenodd" d="M0.9375 20.625C0.9375 19.0717 2.1967 17.8125 3.75 17.8125H58.125C59.6783 17.8125 60.9375 19.0717 60.9375 20.625V65.625C60.9375 67.1783 59.6783 68.4375 58.125 68.4375H30C28.4467 68.4375 27.1875 67.1783 27.1875 65.625C27.1875 64.0717 28.4467 62.8125 30 62.8125H55.3125V23.4375H6.5625V62.8125H15C16.5533 62.8125 17.8125 64.0717 17.8125 65.625C17.8125 67.1783 16.5533 68.4375 15 68.4375H3.75C2.1967 68.4375 0.9375 67.1783 0.9375 65.625V20.625Z" fill="#38A743"/>
<path fill-rule="evenodd" clip-rule="evenodd" d="M55.3125 33.75C55.3125 32.1967 56.5717 30.9375 58.125 30.9375H74.1964C75.0777 30.9375 75.908 31.3506 76.4396 32.0535L88.4932 47.991C88.8626 48.4794 89.0625 49.0751 89.0625 49.6875V65.625C89.0625 67.1783 87.8033 68.4375 86.25 68.4375H74.646C73.0927 68.4375 71.8335 67.1783 71.8335 65.625C71.8335 64.0717 73.0927 62.8125 74.646 62.8125H83.4375V50.6313L72.7972 36.5625H60.9375V65.625C60.9375 67.1783 59.6783 68.4375 58.125 68.4375C56.5717 68.4375 55.3125 67.1783 55.3125 65.625V33.75Z" fill="#38A743"/>
</svg>
