<svg width="90" height="90" viewBox="0 0 90 90" fill="none" xmlns="http://www.w3.org/2000/svg">
<path fill-rule="evenodd" clip-rule="evenodd" d="M6.5625 35.625C6.5625 34.0717 7.8217 32.8125 9.375 32.8125H80.625C82.1783 32.8125 83.4375 34.0717 83.4375 35.625V75C83.4375 78.6244 80.4994 81.5625 76.875 81.5625H13.125C9.50066 81.5625 6.5625 78.6245 6.5625 75V35.625ZM12.1875 38.4375V75C12.1875 75.5178 12.6072 75.9375 13.125 75.9375H76.875C77.3928 75.9375 77.8125 75.5178 77.8125 75V38.4375H12.1875Z" fill="#38A743"/>
<path fill-rule="evenodd" clip-rule="evenodd" d="M13.125 15.9375C12.6072 15.9375 12.1875 16.3572 12.1875 16.875V32.8125H77.8125V16.875C77.8125 16.3572 77.3928 15.9375 76.875 15.9375H13.125ZM6.5625 16.875C6.5625 13.2506 9.50063 10.3125 13.125 10.3125H76.875C80.4995 10.3125 83.4375 13.2507 83.4375 16.875V35.625C83.4375 37.1783 82.1783 38.4375 80.625 38.4375H9.375C7.8217 38.4375 6.5625 37.1783 6.5625 35.625V16.875Z" fill="#38A743"/>
<path fill-rule="evenodd" clip-rule="evenodd" d="M30 4.6875C31.5533 4.6875 32.8125 5.9467 32.8125 7.5V22.5C32.8125 24.0533 31.5533 25.3125 30 25.3125C28.4467 25.3125 27.1875 24.0533 27.1875 22.5V7.5C27.1875 5.9467 28.4467 4.6875 30 4.6875Z" fill="#38A743"/>
<path fill-rule="evenodd" clip-rule="evenodd" d="M60 4.6875C61.5533 4.6875 62.8125 5.9467 62.8125 7.5V22.5C62.8125 24.0533 61.5533 25.3125 60 25.3125C58.4467 25.3125 57.1875 24.0533 57.1875 22.5V7.5C57.1875 5.9467 58.4467 4.6875 60 4.6875Z" fill="#38A743"/>
<path fill-rule="evenodd" clip-rule="evenodd" d="M49.6875 63.75C49.6875 62.1967 50.9467 60.9375 52.5 60.9375H63.75C65.3033 60.9375 66.5625 62.1967 66.5625 63.75C66.5625 65.3033 65.3033 66.5625 63.75 66.5625H52.5C50.9467 66.5625 49.6875 65.3033 49.6875 63.75Z" fill="#38A743"/>
<path fill-rule="evenodd" clip-rule="evenodd" d="M23.4375 63.75C23.4375 62.1967 24.6967 60.9375 26.25 60.9375H37.5C39.0533 60.9375 40.3125 62.1967 40.3125 63.75C40.3125 65.3033 39.0533 66.5625 37.5 66.5625H26.25C24.6967 66.5625 23.4375 65.3033 23.4375 63.75Z" fill="#38A743"/>
<path fill-rule="evenodd" clip-rule="evenodd" d="M49.6875 48.75C49.6875 47.1967 50.9467 45.9375 52.5 45.9375H63.75C65.3033 45.9375 66.5625 47.1967 66.5625 48.75C66.5625 50.3033 65.3033 51.5625 63.75 51.5625H52.5C50.9467 51.5625 49.6875 50.3033 49.6875 48.75Z" fill="#38A743"/>
<path fill-rule="evenodd" clip-rule="evenodd" d="M23.4375 48.75C23.4375 47.1967 24.6967 45.9375 26.25 45.9375H37.5C39.0533 45.9375 40.3125 47.1967 40.3125 48.75C40.3125 50.3033 39.0533 51.5625 37.5 51.5625H26.25C24.6967 51.5625 23.4375 50.3033 23.4375 48.75Z" fill="#38A743"/>
</svg>
