<svg width="90" height="90" viewBox="0 0 90 90" fill="none" xmlns="http://www.w3.org/2000/svg">
<path d="M45 8.4375C36.1979 8.4375 29.0625 15.573 29.0625 24.375C29.0625 33.1771 36.1979 40.3125 45 40.3125C53.8021 40.3125 60.9375 33.1771 60.9375 24.375C60.9375 15.573 53.8021 8.4375 45 8.4375ZM34.6875 24.375C34.6875 18.6796 39.3046 14.0625 45 14.0625C50.6954 14.0625 55.3125 18.6796 55.3125 24.375C55.3125 30.0704 50.6954 34.6875 45 34.6875C39.3046 34.6875 34.6875 30.0704 34.6875 24.375ZM24.109 15.9092C25.383 15.0206 25.6954 13.2674 24.8068 11.9934C23.9181 10.7194 22.165 10.4071 20.891 11.2957C16.7689 14.1709 14.0625 18.9566 14.0625 24.3749C14.0625 30.1757 17.1633 35.2495 21.7842 38.0339C23.1146 38.8356 24.843 38.4069 25.6447 37.0765C26.4464 35.7461 26.0177 34.0176 24.6873 33.216C21.6852 31.407 19.6875 28.1228 19.6875 24.3749C19.6875 20.8728 21.4305 17.7776 24.109 15.9092ZM65.1935 11.9934C66.0821 10.7194 67.8353 10.4071 69.1093 11.2957C73.2313 14.1709 75.9377 18.9566 75.9377 24.3749C75.9377 29.7931 73.2314 34.579 69.1092 37.4542C67.8352 38.3428 66.0821 38.0304 65.1934 36.7564C64.3048 35.4823 64.6173 33.7292 65.8913 32.8406C68.5697 30.9724 70.3127 27.8769 70.3127 24.3749C70.3127 20.8728 68.5698 17.7776 65.8912 15.9092C64.6172 15.0206 64.3048 13.2674 65.1935 11.9934ZM53.3988 49.8368C51.2109 49.6875 48.5103 49.6875 45.1027 49.6875H44.8973C41.4898 49.6875 38.7891 49.6875 36.6012 49.8368C34.3662 49.9893 32.4615 50.3069 30.6834 51.0435C26.3188 52.8512 22.8512 56.3189 21.0434 60.6834C20.3069 62.4615 19.9893 64.3661 19.8368 66.6012C19.6875 68.7891 19.6875 71.4898 19.6875 74.8973V78.75C19.6875 80.3033 20.9467 81.5625 22.5 81.5625H67.5C69.0533 81.5625 70.3125 80.3033 70.3125 78.75V74.8973C70.3125 71.49 70.3125 68.789 70.1632 66.6012C70.0107 64.3662 69.6931 62.4616 68.9566 60.6834C67.1488 56.3189 63.6811 52.8512 59.3166 51.0435C57.5385 50.3069 55.6339 49.9893 53.3988 49.8368ZM30.6834 51.0435L36.6012 49.8368L44.8973 49.6875L30.6834 51.0435ZM32.836 56.2403C33.8145 55.835 35.0355 55.5817 36.9841 55.4487C38.9581 55.314 41.467 55.3125 45 55.3125C48.533 55.3125 51.0419 55.314 53.0159 55.4487C54.9645 55.5817 56.1856 55.835 57.1641 56.2403C60.1503 57.4772 62.5229 59.8498 63.7597 62.836C64.165 63.8145 64.4183 65.0355 64.5513 66.9841C64.686 68.9581 64.6875 71.467 64.6875 75V75.9375H25.3125V75C25.3125 71.467 25.314 68.9581 25.4487 66.9841C25.5817 65.0355 25.835 63.8144 26.2403 62.8359C27.4772 59.8497 29.8498 57.4771 32.836 56.2403ZM71.8043 52.858C72.5095 51.474 74.2032 50.9237 75.5872 51.6289C78.9388 53.3366 81.6638 56.0617 83.3716 59.4133C84.4247 61.4802 84.8807 63.7439 85.0993 66.4191C85.313 69.0351 85.313 72.2808 85.313 76.3763V78.75C85.313 80.3033 84.0538 81.5625 82.5005 81.5625C80.9472 81.5625 79.688 80.3033 79.688 78.75V76.5C79.688 72.2532 79.6858 69.2373 79.493 66.8771C79.3028 64.5498 78.9414 63.1088 78.3597 61.967C77.7924 60.8537 77.061 59.8413 76.1962 58.9606L78.3597 61.967L73.0334 56.6408C71.6494 55.9356 71.0992 54.2419 71.8043 52.858ZM16.967 56.6408C18.351 55.9356 18.9013 54.2419 18.1961 52.8579C17.4909 51.474 15.7973 50.9237 14.4133 51.6289C11.0616 53.3367 8.33667 56.0617 6.62895 59.4133C5.57581 61.4803 5.11978 63.7438 4.9012 66.419C4.68746 69.0351 4.68748 72.2807 4.6875 76.3762V78.75C4.6875 80.3033 5.9467 81.5625 7.5 81.5625C9.0533 81.5625 10.3125 80.3033 10.3125 78.75V76.5C10.3125 72.2532 10.3147 69.2373 10.5075 66.8771C10.6977 64.5498 11.0591 63.1088 11.6409 61.967C12.8093 59.6738 14.6738 57.8092 16.967 56.6408Z" fill="#38A743"/>
</svg>
