<svg width="26" height="26" viewBox="0 0 26 26" fill="none" xmlns="http://www.w3.org/2000/svg">
<path d="M25.5868 19.6444C24.6294 17.8346 21.305 15.8723 21.1586 15.7864C20.7314 15.5433 20.2856 15.4146 19.8685 15.4146C19.2482 15.4146 18.7404 15.6987 18.4329 16.2155C17.9466 16.7972 17.3435 17.4771 17.1972 17.5824C16.0644 18.351 15.1776 18.2637 14.1964 17.2825L8.72028 11.8059C7.7453 10.831 7.65567 9.93321 8.41897 8.80661C8.52576 8.6593 9.20563 8.05571 9.78728 7.56893C10.1582 7.34819 10.4128 7.02018 10.5244 6.61779C10.6726 6.08238 10.5635 5.45258 10.2135 4.83898C10.131 4.69786 8.16771 1.3729 6.35887 0.416039C6.02132 0.237252 5.64086 0.142853 5.25945 0.142853C4.63107 0.142853 4.03988 0.38791 3.59554 0.831777L2.38551 2.04133C0.47178 3.95458 -0.220959 6.12338 0.325413 8.48718C0.7812 10.4572 2.10947 12.5535 4.27398 14.7175L11.2848 21.7284C14.0243 24.4678 16.636 25.8571 19.0475 25.8571C19.0475 25.8571 19.0475 25.8571 19.048 25.8571C20.8215 25.8571 22.4749 25.1034 23.961 23.6173L25.1706 22.4077C25.9057 21.6731 26.0726 20.5622 25.5868 19.6444Z" fill="white"/>
</svg>
