<svg width="30" height="30" viewBox="0 0 30 30" fill="none" xmlns="http://www.w3.org/2000/svg">
<g clip-path="url(#clip0_17241_704)">
<path fill-rule="evenodd" clip-rule="evenodd" d="M2.93597 22.0531L0.429688 29.5714L8.58969 27.4244C10.5799 28.4725 12.8461 29.069 15.2523 29.069C23.1611 29.069 29.5725 22.6575 29.5725 14.7488C29.5725 6.84 23.1611 0.428574 15.2523 0.428574C7.34358 0.428574 0.932151 6.84 0.932151 14.7488C0.932151 17.4179 1.66424 19.9141 2.93597 22.0531ZM20.1731 17.1767C20.1731 17.1767 22.2683 18.4046 22.8365 19.4783C23.0783 19.9347 22.9941 20.4955 22.6288 20.8616L21.8698 21.6206C19.462 24.0284 16.7438 22.8429 14.336 20.435L12.1354 18.2345L9.93483 16.0339C7.52702 13.6261 6.34146 10.9079 8.74927 8.50004L9.50827 7.74104C9.87352 7.37579 10.4343 7.29117 10.8911 7.53295C11.9649 8.10112 13.1927 10.1963 13.1927 10.1963C13.463 10.6704 13.4932 11.242 13.0114 11.5127C13.0114 11.5127 12.195 12.1936 12.0775 12.3667C11.5418 13.1576 11.5625 13.8903 12.3021 14.6299L14.0208 16.3486L15.7396 18.0674C16.4791 18.807 17.2118 18.8277 18.0027 18.2919C18.1759 18.1745 18.8567 17.358 18.8567 17.358C19.127 16.8762 19.699 16.9064 20.1731 17.1767Z" fill="white"/>
</g>
<defs>
<clipPath id="clip0_17241_704">
<rect width="29.1429" height="29.1429" fill="white" transform="translate(0.429688 0.428574)"/>
</clipPath>
</defs>
</svg>
