<svg width="22" height="22" viewBox="0 0 22 22" fill="none" xmlns="http://www.w3.org/2000/svg">
<path d="M21.7644 16.6825C20.9455 15.1343 18.1016 13.4556 17.9764 13.3822C17.6109 13.1742 17.2296 13.0641 16.8727 13.0641C16.3421 13.0641 15.9078 13.3072 15.6447 13.7493C15.2287 14.2469 14.7128 14.8284 14.5876 14.9186C13.6185 15.576 12.8599 15.5014 12.0206 14.662L7.33608 9.97712C6.50203 9.14308 6.42536 8.37511 7.07832 7.41137C7.16968 7.28534 7.75126 6.76901 8.24884 6.3526C8.56614 6.16377 8.78393 5.88317 8.87936 5.53895C9.0062 5.08094 8.91281 4.54217 8.61345 4.01728C8.54289 3.89656 6.86338 1.05224 5.31602 0.233695C5.02726 0.0807534 4.7018 0 4.37553 0C3.83799 0 3.33226 0.209633 2.95215 0.589337L1.91703 1.62404C0.279943 3.26072 -0.312656 5.11601 0.154735 7.13811C0.544635 8.82333 1.68089 10.6166 3.53251 12.4678L9.52988 18.4652C11.8734 20.8087 14.1075 21.9971 16.1704 21.9971C16.1704 21.9971 16.1704 21.9971 16.1708 21.9971C17.688 21.9971 19.1024 21.3523 20.3737 20.0811L21.4084 19.0464C22.0373 18.4179 22.18 17.4676 21.7644 16.6825Z" fill="#45B350"/>
</svg>
