<svg width="22" height="22" viewBox="0 0 22 22" fill="none" xmlns="http://www.w3.org/2000/svg">
<g clip-path="url(#clip0_17233_646)">
<path d="M10.2058 0.949602C6.84569 1.2246 3.85506 3.14101 2.19647 6.08867C0.804279 8.56367 0.54217 11.593 1.47889 14.3043C1.97733 15.7394 2.71639 16.9297 3.7992 18.0383C6.8285 21.1449 11.4992 21.9613 15.4051 20.0664C17.5148 19.0394 19.2637 17.2348 20.1961 15.125C21.7344 11.6488 21.2359 7.71718 18.8812 4.71796C18.3269 4.01328 17.2269 3.0164 16.4578 2.52656C15.6027 1.98085 14.5414 1.51249 13.6004 1.26757C12.8871 1.07851 12.4101 1.00117 11.6883 0.945305C11.0437 0.898039 10.8332 0.898039 10.2058 0.949602ZM11.4906 4.72655C11.5765 4.78671 11.7012 4.91132 11.7656 5.00156L11.8816 5.16913L11.8945 7.88046L11.9031 10.5875L13.2308 11.9238C14.6789 13.3762 14.6789 13.3805 14.6445 13.8359C14.623 14.1281 14.5027 14.3344 14.2492 14.5148C14.0988 14.618 14.0387 14.6309 13.7508 14.6309C13.4629 14.6309 13.3984 14.618 13.2523 14.5148C13.1578 14.4504 12.4316 13.7414 11.6367 12.9465C10.4422 11.7476 10.1844 11.4641 10.1457 11.3223C10.107 11.1976 10.0984 10.3297 10.107 8.15546L10.1199 5.16484L10.2488 4.98007C10.4422 4.70507 10.6957 4.58906 11.048 4.60624C11.2629 4.61913 11.3703 4.64921 11.4906 4.72655Z" fill="#45B350"/>
</g>
<defs>
<clipPath id="clip0_17233_646">
<rect width="22" height="22" fill="white"/>
</clipPath>
</defs>
</svg>
