<svg width="186" height="15" viewBox="0 0 186 15" fill="none" xmlns="http://www.w3.org/2000/svg">
<path d="M11.22 11H4.72L3.48 14H0.16L6.4 -9.53674e-07H9.6L15.86 14H12.46L11.22 11ZM10.2 8.54L7.98 3.18L5.76 8.54H10.2ZM27.9138 3.24V14H24.7938V5.8H21.3938L21.2938 7.7C21.2404 9.11333 21.1071 10.2867 20.8938 11.22C20.6804 12.1533 20.3338 12.8867 19.8538 13.42C19.3738 13.9533 18.7071 14.22 17.8538 14.22C17.4004 14.22 16.8604 14.14 16.2338 13.98L16.3938 11.42C16.6071 11.4467 16.7604 11.46 16.8538 11.46C17.3204 11.46 17.6671 11.2933 17.8938 10.96C18.1338 10.6133 18.2938 10.18 18.3738 9.66C18.4538 9.12667 18.5138 8.42667 18.5538 7.56L18.7138 3.24H27.9138ZM36.7341 6.68C38.1341 6.69333 39.2074 7.01333 39.9541 7.64C40.7007 8.25333 41.0741 9.12667 41.0741 10.26C41.0741 11.4467 40.6541 12.3733 39.8141 13.04C38.9874 13.6933 37.8207 14.02 36.3141 14.02L30.9141 14V3.24H34.0141V6.68H36.7341ZM36.0341 11.8C36.6341 11.8133 37.0941 11.6867 37.4141 11.42C37.7341 11.1533 37.8941 10.7533 37.8941 10.22C37.8941 9.7 37.7341 9.32 37.4141 9.08C37.1074 8.84 36.6474 8.71333 36.0341 8.7L34.0141 8.68V11.8H36.0341ZM51.8413 3.24V14H49.0613V10.92H46.7613L44.7213 14H41.4013L43.8613 10.48C43.1146 10.1867 42.5413 9.76667 42.1413 9.22C41.7546 8.66 41.5613 7.98667 41.5613 7.2C41.5613 5.93333 42.0146 4.96 42.9213 4.28C43.8413 3.58667 45.1013 3.24 46.7013 3.24H51.8413ZM46.7613 5.78C46.0946 5.78 45.5879 5.9 45.2413 6.14C44.9079 6.38 44.7413 6.76667 44.7413 7.3C44.7413 7.83333 44.9013 8.22667 45.2213 8.48C45.5546 8.72 46.0546 8.84 46.7213 8.84H49.0613V5.78H46.7613ZM54.8398 3.24H57.9398V7.44H62.6198V3.24H65.7398V14H62.6198V9.98H57.9398V14H54.8398V3.24ZM73.8466 14.16C72.6999 14.16 71.6666 13.9267 70.7466 13.46C69.8399 12.98 69.1266 12.32 68.6066 11.48C68.0999 10.64 67.8466 9.68667 67.8466 8.62C67.8466 7.55333 68.0999 6.6 68.6066 5.76C69.1266 4.92 69.8399 4.26667 70.7466 3.8C71.6666 3.32 72.6999 3.08 73.8466 3.08C74.9799 3.08 75.9666 3.32 76.8066 3.8C77.6599 4.26667 78.2799 4.94 78.6666 5.82L76.2466 7.12C75.6866 6.13333 74.8799 5.64 73.8266 5.64C73.0132 5.64 72.3399 5.90667 71.8066 6.44C71.2732 6.97333 71.0066 7.7 71.0066 8.62C71.0066 9.54 71.2732 10.2667 71.8066 10.8C72.3399 11.3333 73.0132 11.6 73.8266 11.6C74.8932 11.6 75.6999 11.1067 76.2466 10.12L78.6666 11.44C78.2799 12.2933 77.6599 12.96 76.8066 13.44C75.9666 13.92 74.9799 14.16 73.8466 14.16Z" fill="#38A743"/>
<path d="M96.5466 3.24V14H93.4266V5.8H90.0266L89.9266 7.7C89.8732 9.11333 89.7399 10.2867 89.5266 11.22C89.3132 12.1533 88.9666 12.8867 88.4866 13.42C88.0066 13.9533 87.3399 14.22 86.4866 14.22C86.0332 14.22 85.4932 14.14 84.8666 13.98L85.0266 11.42C85.2399 11.4467 85.3932 11.46 85.4866 11.46C85.9532 11.46 86.2999 11.2933 86.5266 10.96C86.7666 10.6133 86.9266 10.18 87.0066 9.66C87.0866 9.12667 87.1466 8.42667 87.1866 7.56L87.3466 3.24H96.5466ZM104.587 14.16C103.454 14.16 102.434 13.9267 101.527 13.46C100.634 12.98 99.9335 12.32 99.4269 11.48C98.9202 10.64 98.6669 9.68667 98.6669 8.62C98.6669 7.55333 98.9202 6.6 99.4269 5.76C99.9335 4.92 100.634 4.26667 101.527 3.8C102.434 3.32 103.454 3.08 104.587 3.08C105.72 3.08 106.734 3.32 107.627 3.8C108.52 4.26667 109.22 4.92 109.727 5.76C110.234 6.6 110.487 7.55333 110.487 8.62C110.487 9.68667 110.234 10.64 109.727 11.48C109.22 12.32 108.52 12.98 107.627 13.46C106.734 13.9267 105.72 14.16 104.587 14.16ZM104.587 11.6C105.387 11.6 106.04 11.3333 106.547 10.8C107.067 10.2533 107.327 9.52667 107.327 8.62C107.327 7.71333 107.067 6.99333 106.547 6.46C106.04 5.91333 105.387 5.64 104.587 5.64C103.787 5.64 103.127 5.91333 102.607 6.46C102.087 6.99333 101.827 7.71333 101.827 8.62C101.827 9.52667 102.087 10.2533 102.607 10.8C103.127 11.3333 103.787 11.6 104.587 11.6ZM121.253 5.8H115.733V14H112.633V3.24H121.253V5.8ZM122.906 3.24H126.006V9.64L131.246 3.24H134.106V14H131.006V7.6L125.786 14H122.906V3.24ZM142.225 14.16C141.079 14.16 140.045 13.9267 139.125 13.46C138.219 12.98 137.505 12.32 136.985 11.48C136.479 10.64 136.225 9.68667 136.225 8.62C136.225 7.55333 136.479 6.6 136.985 5.76C137.505 4.92 138.219 4.26667 139.125 3.8C140.045 3.32 141.079 3.08 142.225 3.08C143.359 3.08 144.345 3.32 145.185 3.8C146.039 4.26667 146.659 4.94 147.045 5.82L144.625 7.12C144.065 6.13333 143.259 5.64 142.205 5.64C141.392 5.64 140.719 5.90667 140.185 6.44C139.652 6.97333 139.385 7.7 139.385 8.62C139.385 9.54 139.652 10.2667 140.185 10.8C140.719 11.3333 141.392 11.6 142.205 11.6C143.272 11.6 144.079 11.1067 144.625 10.12L147.045 11.44C146.659 12.2933 146.039 12.96 145.185 13.44C144.345 13.92 143.359 14.16 142.225 14.16ZM157.942 5.8H154.302V14H151.202V5.8H147.562V3.24H157.942V5.8ZM159.605 3.24H162.705V9.64L167.945 3.24H170.805V14H167.705V7.6L162.485 14H159.605V3.24ZM178.545 9.92H176.925V14H173.805V3.24H176.925V7.42H178.605L181.525 3.24H184.845L181.085 8.4L185.105 14H181.425L178.545 9.92Z" fill="white"/>
</svg>
