<svg width="30" height="26" viewBox="0 0 30 26" fill="none" xmlns="http://www.w3.org/2000/svg">
<path d="M29.4319 1.68364L24.8227 24.9226C24.8227 24.9226 24.1782 26.5342 22.4054 25.7607L11.7689 17.606L7.90122 15.7366L1.39044 13.5447C1.39044 13.5447 0.39126 13.1903 0.294487 12.4167C0.197916 11.6432 1.42269 11.2242 1.42269 11.2242L27.3045 1.07115C27.3045 1.07115 29.4319 0.136487 29.4319 1.68364Z" fill="white"/>
<path d="M10.9525 24.6616C10.9525 24.6616 10.642 24.6326 10.2551 23.4076C9.86844 22.1828 7.90234 15.7366 7.90234 15.7366L23.5345 5.80931C23.5345 5.80931 24.4372 5.26133 24.4049 5.80931C24.4049 5.80931 24.566 5.90588 24.0825 6.35708C23.5991 6.80849 11.8023 17.4126 11.8023 17.4126" fill="#D2E5F1"/>
<path d="M15.849 20.7326L11.6418 24.5685C11.6418 24.5685 11.313 24.8181 10.9531 24.6616L11.7588 17.5365" fill="#B5CFE4"/>
</svg>
