<svg width="204" height="17" viewBox="0 0 204 17" fill="none" xmlns="http://www.w3.org/2000/svg">
<path d="M12.342 12.7H5.192L3.828 16H0.176L7.04 0.599999H10.56L17.446 16H13.706L12.342 12.7ZM11.22 9.994L8.778 4.098L6.336 9.994H11.22ZM30.7051 4.164V16H27.2731V6.98H23.5331L23.4231 9.07C23.3645 10.6247 23.2178 11.9153 22.9831 12.942C22.7485 13.9687 22.3671 14.7753 21.8391 15.362C21.3111 15.9487 20.5778 16.242 19.6391 16.242C19.1405 16.242 18.5465 16.154 17.8571 15.978L18.0331 13.162C18.2678 13.1913 18.4365 13.206 18.5391 13.206C19.0525 13.206 19.4338 13.0227 19.6831 12.656C19.9471 12.2747 20.1231 11.798 20.2111 11.226C20.2991 10.6393 20.3651 9.86933 20.4091 8.916L20.5851 4.164H30.7051ZM40.4075 7.948C41.9475 7.96267 43.1281 8.31467 43.9495 9.004C44.7708 9.67867 45.1815 10.6393 45.1815 11.886C45.1815 13.1913 44.7195 14.2107 43.7955 14.944C42.8861 15.6627 41.6028 16.022 39.9455 16.022L34.0055 16V4.164H37.4155V7.948H40.4075ZM39.6375 13.58C40.2975 13.5947 40.8035 13.4553 41.1555 13.162C41.5075 12.8687 41.6835 12.4287 41.6835 11.842C41.6835 11.27 41.5075 10.852 41.1555 10.588C40.8181 10.324 40.3121 10.1847 39.6375 10.17L37.4155 10.148V13.58H39.6375ZM57.0254 4.164V16H53.9674V12.612H51.4374L49.1934 16H45.5414L48.2474 12.128C47.426 11.8053 46.7954 11.3433 46.3554 10.742C45.93 10.126 45.7174 9.38533 45.7174 8.52C45.7174 7.12667 46.216 6.056 47.2134 5.308C48.2254 4.54533 49.6114 4.164 51.3714 4.164H57.0254ZM51.4374 6.958C50.704 6.958 50.1467 7.09 49.7654 7.354C49.3987 7.618 49.2154 8.04333 49.2154 8.63C49.2154 9.21667 49.3914 9.64933 49.7434 9.928C50.11 10.192 50.66 10.324 51.3934 10.324H53.9674V6.958H51.4374ZM60.3238 4.164H63.7338V8.784H68.8818V4.164H72.3138V16H68.8818V11.578H63.7338V16H60.3238V4.164ZM81.2312 16.176C79.9699 16.176 78.8332 15.9193 77.8212 15.406C76.8239 14.878 76.0392 14.152 75.4672 13.228C74.9099 12.304 74.6312 11.2553 74.6312 10.082C74.6312 8.90867 74.9099 7.86 75.4672 6.936C76.0392 6.012 76.8239 5.29333 77.8212 4.78C78.8332 4.252 79.9699 3.988 81.2312 3.988C82.4779 3.988 83.5632 4.252 84.4872 4.78C85.4259 5.29333 86.1079 6.034 86.5332 7.002L83.8712 8.432C83.2552 7.34667 82.3679 6.804 81.2092 6.804C80.3146 6.804 79.5739 7.09733 78.9872 7.684C78.4006 8.27067 78.1072 9.07 78.1072 10.082C78.1072 11.094 78.4006 11.8933 78.9872 12.48C79.5739 13.0667 80.3146 13.36 81.2092 13.36C82.3826 13.36 83.2699 12.8173 83.8712 11.732L86.5332 13.184C86.1079 14.1227 85.4259 14.856 84.4872 15.384C83.5632 15.912 82.4779 16.176 81.2312 16.176Z" fill="#38A743"/>
<path d="M106.201 4.164V16H102.769V6.98H99.0292L98.9192 9.07C98.8606 10.6247 98.7139 11.9153 98.4792 12.942C98.2446 13.9687 97.8632 14.7753 97.3352 15.362C96.8072 15.9487 96.0739 16.242 95.1352 16.242C94.6366 16.242 94.0426 16.154 93.3532 15.978L93.5292 13.162C93.7639 13.1913 93.9326 13.206 94.0352 13.206C94.5486 13.206 94.9299 13.0227 95.1792 12.656C95.4432 12.2747 95.6192 11.798 95.7072 11.226C95.7952 10.6393 95.8612 9.86933 95.9052 8.916L96.0812 4.164H106.201ZM115.046 16.176C113.799 16.176 112.677 15.9193 111.68 15.406C110.697 14.878 109.927 14.152 109.37 13.228C108.812 12.304 108.534 11.2553 108.534 10.082C108.534 8.90867 108.812 7.86 109.37 6.936C109.927 6.012 110.697 5.29333 111.68 4.78C112.677 4.252 113.799 3.988 115.046 3.988C116.292 3.988 117.407 4.252 118.39 4.78C119.372 5.29333 120.142 6.012 120.7 6.936C121.257 7.86 121.536 8.90867 121.536 10.082C121.536 11.2553 121.257 12.304 120.7 13.228C120.142 14.152 119.372 14.878 118.39 15.406C117.407 15.9193 116.292 16.176 115.046 16.176ZM115.046 13.36C115.926 13.36 116.644 13.0667 117.202 12.48C117.774 11.8787 118.06 11.0793 118.06 10.082C118.06 9.08467 117.774 8.29267 117.202 7.706C116.644 7.10467 115.926 6.804 115.046 6.804C114.166 6.804 113.44 7.10467 112.868 7.706C112.296 8.29267 112.01 9.08467 112.01 10.082C112.01 11.0793 112.296 11.8787 112.868 12.48C113.44 13.0667 114.166 13.36 115.046 13.36ZM133.378 6.98H127.306V16H123.896V4.164H133.378V6.98ZM135.197 4.164H138.607V11.204L144.371 4.164H147.517V16H144.107V8.96L138.365 16H135.197V4.164ZM156.448 16.176C155.187 16.176 154.05 15.9193 153.038 15.406C152.041 14.878 151.256 14.152 150.684 13.228C150.127 12.304 149.848 11.2553 149.848 10.082C149.848 8.90867 150.127 7.86 150.684 6.936C151.256 6.012 152.041 5.29333 153.038 4.78C154.05 4.252 155.187 3.988 156.448 3.988C157.695 3.988 158.78 4.252 159.704 4.78C160.643 5.29333 161.325 6.034 161.75 7.002L159.088 8.432C158.472 7.34667 157.585 6.804 156.426 6.804C155.531 6.804 154.791 7.09733 154.204 7.684C153.617 8.27067 153.324 9.07 153.324 10.082C153.324 11.094 153.617 11.8933 154.204 12.48C154.791 13.0667 155.531 13.36 156.426 13.36C157.599 13.36 158.487 12.8173 159.088 11.732L161.75 13.184C161.325 14.1227 160.643 14.856 159.704 15.384C158.78 15.912 157.695 16.176 156.448 16.176ZM173.737 6.98H169.733V16H166.323V6.98H162.319V4.164H173.737V6.98ZM175.566 4.164H178.976V11.204L184.74 4.164H187.886V16H184.476V8.96L178.734 16H175.566V4.164ZM196.399 11.512H194.617V16H191.185V4.164H194.617V8.762H196.465L199.677 4.164H203.329L199.193 9.84L203.615 16H199.567L196.399 11.512Z" fill="#3C3C3B"/>
</svg>
